<svg width="48" height="48" viewBox="0 0 62 62" fill="none" xmlns="http://www.w3.org/2000/svg">
<path d="M56.8333 23.25H5.16667M36.1667 45.2083L42.625 38.75L36.1667 32.2917M25.8333 32.2917L19.375 38.75L25.8333 45.2083M5.16667 20.15V41.85C5.16667 46.1905 5.16667 48.3605 6.01137 50.0185C6.75439 51.4768 7.93998 52.6623 9.39825 53.4052C11.0561 54.25 13.2263 54.25 17.5667 54.25H44.4333C48.7739 54.25 50.9439 54.25 52.6018 53.4052C54.0601 52.6623 55.2456 51.4768 55.9886 50.0185C56.8333 48.3605 56.8333 46.1905 56.8333 41.85V20.15C56.8333 15.8096 56.8333 13.6394 55.9886 11.9816C55.2456 10.5233 54.0601 9.33772 52.6018 8.5947C50.9439 7.75 48.7739 7.75 44.4333 7.75H17.5667C13.2263 7.75 11.0561 7.75 9.39825 8.5947C7.93998 9.33772 6.75439 10.5233 6.01137 11.9816C5.16667 13.6394 5.16667 15.8096 5.16667 20.15Z" stroke="url(#paint0_linear_306_304)" stroke-width="4" stroke-linecap="round" stroke-linejoin="round"/>
<defs>
<linearGradient id="paint0_linear_306_304" x1="5.16667" y1="7.75" x2="60.3634" y2="49.5934" gradientUnits="userSpaceOnUse">
<stop stop-color="#00C7BE"/>
<stop offset="1" stop-color="#0E3C5A"/>
</linearGradient>
</defs>
</svg>
