<svg width="28" height="28" viewBox="0 0 39 38" fill="none" xmlns="http://www.w3.org/2000/svg">
<path fill-rule="evenodd" clip-rule="evenodd" d="M19.5 1.51562C9.60006 1.51562 1.57227 9.54164 1.57227 19.4433C1.57227 27.3645 6.70909 34.0843 13.8323 36.4551C14.728 36.6214 15.0569 36.0662 15.0569 35.5927C15.0569 35.1652 15.0403 33.753 15.0326 32.255C10.0451 33.3394 8.99266 30.1397 8.99266 30.1397C8.17714 28.0675 7.00211 27.5165 7.00211 27.5165C5.37524 26.4038 7.12472 26.427 7.12472 26.427C8.92467 26.5532 9.87289 28.2745 9.87289 28.2745C11.4719 31.0146 14.0668 30.2225 15.0899 29.7648C15.2508 28.6061 15.7154 27.8149 16.2281 27.3672C12.2461 26.9145 8.05988 25.377 8.05988 18.5076C8.05988 16.5503 8.7605 14.951 9.90733 13.6952C9.72089 13.244 9.10725 11.4206 10.0807 8.95116C10.0807 8.95116 11.5859 8.46933 15.0118 10.7888C16.4421 10.3913 17.9761 10.1915 19.5 10.1847C21.0229 10.1915 22.5578 10.3907 23.9908 10.7882C27.4126 8.46873 28.9159 8.95056 28.9159 8.95056C29.8918 11.4197 29.2781 13.2434 29.092 13.6946C30.2415 14.9504 30.9371 16.5497 30.9371 18.507C30.9371 25.3927 26.7431 26.9085 22.751 27.3527C23.3944 27.909 23.9673 29.0003 23.9673 30.6726C23.9673 33.0714 23.9465 35.0019 23.9465 35.5924C23.9465 36.0695 24.2695 36.6285 25.178 36.4525C32.2971 34.0793 37.4279 27.3616 37.4279 19.4433C37.4276 9.54223 29.4007 1.51592 19.5 1.51592V1.51562Z" fill="#A3A3A3"/>
<path d="M8.36228 27.2546C8.3228 27.3437 8.18267 27.3704 8.05502 27.3096C7.92439 27.2514 7.85166 27.13 7.89382 27.0406C7.93241 26.9486 8.07283 26.9233 8.20257 26.9848C8.33319 27.0433 8.40741 27.1659 8.36199 27.2549L8.36228 27.2546ZM9.08844 28.0648C9.00324 28.1441 8.8361 28.1073 8.72269 27.9817C8.60513 27.857 8.58316 27.6899 8.67014 27.6094C8.75861 27.5304 8.92071 27.5679 9.03827 27.6925C9.15524 27.819 9.17839 27.9847 9.08874 28.0651L9.08844 28.0648ZM9.7956 29.0971C9.68575 29.1736 9.50585 29.1021 9.39482 28.9427C9.28497 28.783 9.28497 28.5915 9.39778 28.5152C9.50852 28.4386 9.68575 28.5078 9.79857 28.6657C9.90782 28.8275 9.90782 29.019 9.7956 29.0968V29.0971ZM10.7637 30.0949C10.6657 30.2032 10.4561 30.1741 10.303 30.0266C10.1465 29.882 10.1029 29.6763 10.2011 29.5682C10.3009 29.4595 10.5114 29.4898 10.6654 29.6365C10.8219 29.7808 10.8691 29.9868 10.7643 30.0946L10.7637 30.0949ZM12.0996 30.6741C12.056 30.8145 11.8547 30.8783 11.6514 30.8183C11.4486 30.7569 11.3159 30.5927 11.3575 30.4508C11.399 30.3092 11.6018 30.243 11.8063 30.3068C12.0091 30.368 12.1418 30.5313 12.0996 30.6741ZM13.5671 30.7812C13.5721 30.9291 13.4 31.0514 13.1871 31.0544C12.9725 31.0594 12.7988 30.9395 12.7967 30.794C12.7967 30.6447 12.9653 30.5238 13.1797 30.5197C13.3925 30.5158 13.5674 30.6346 13.5674 30.7809L13.5671 30.7812ZM14.9321 30.5491C14.9577 30.6931 14.8095 30.8412 14.5978 30.8807C14.39 30.9193 14.1971 30.8296 14.1703 30.6868C14.1448 30.539 14.2956 30.3908 14.5034 30.3525C14.7154 30.316 14.9054 30.403 14.9321 30.5494V30.5491Z" fill="#A3A3A3"/>
</svg>
