<svg width="48" height="48" viewBox="0 0 62 62" fill="none" xmlns="http://www.w3.org/2000/svg">
<path d="M31 45.2077H31.0258M21.1833 56.8327H40.8167C43.7103 56.8327 45.1572 56.8327 46.2623 56.2695C47.2344 55.7743 48.0249 54.9838 48.5202 54.0117C49.0833 52.9065 49.0833 51.4596 49.0833 48.566V13.4327C49.0833 10.5391 49.0833 9.09227 48.5202 7.98707C48.0249 7.01488 47.2344 6.22448 46.2623 5.72916C45.1572 5.16602 43.7103 5.16602 40.8167 5.16602H21.1833C18.2897 5.16602 16.8429 5.16602 15.7377 5.72916C14.7655 6.22448 13.9751 7.01488 13.4798 7.98707C12.9167 9.09227 12.9167 10.5391 12.9167 13.4327V48.566C12.9167 51.4596 12.9167 52.9065 13.4798 54.0117C13.9751 54.9838 14.7655 55.7743 15.7377 56.2695C16.8429 56.8327 18.2897 56.8327 21.1833 56.8327ZM32.2917 45.2077C32.2917 45.9209 31.7132 46.4994 31 46.4994C30.2867 46.4994 29.7083 45.9209 29.7083 45.2077C29.7083 44.4944 30.2867 43.916 31 43.916C31.7132 43.916 32.2917 44.4944 32.2917 45.2077Z" stroke="url(#paint0_linear_307_753)" stroke-width="4" stroke-linecap="round" stroke-linejoin="round"/>
<defs>
<linearGradient id="paint0_linear_307_753" x1="12.9167" y1="5.16602" x2="62.4587" y2="28.8267" gradientUnits="userSpaceOnUse">
<stop stop-color="#00C7BE"/>
<stop offset="1" stop-color="#0E3C5A"/>
</linearGradient>
</defs>
</svg>
