<svg width="48" height="48" viewBox="0 0 62 62" fill="none" xmlns="http://www.w3.org/2000/svg">
<path d="M23.25 30.9994L28.4167 36.166L40.0417 24.541M23.7716 53.2183C24.6183 53.1062 25.4736 53.3359 26.148 53.8554L29.2565 56.2406C30.2839 57.0301 31.7133 57.0301 32.7378 56.2406L35.9639 53.7637C36.5666 53.3015 37.3271 53.0977 38.0791 53.1982L42.1145 53.7291C43.3974 53.8985 44.6346 53.1837 45.1311 51.9869L46.6839 48.2325C46.9738 47.5293 47.5305 46.9726 48.2337 46.6825L51.9878 45.1297C53.1846 44.636 53.8995 43.3963 53.73 42.1131L53.2193 38.2239C53.1071 37.3771 53.3368 36.5217 53.8563 35.8472L56.2415 32.7387C57.0307 31.7111 57.0307 30.2817 56.2415 29.2572L53.7643 26.0308C53.3024 25.4281 53.0986 24.6675 53.1991 23.9155L53.73 19.8799C53.8995 18.5968 53.1846 17.3597 51.9878 16.8632L48.2337 15.3104C47.5305 15.0205 46.9738 14.4636 46.6839 13.7604L45.1311 10.0061C44.6374 8.80914 43.3974 8.09444 42.1145 8.26377L38.0791 8.79478C37.3271 8.89811 36.5666 8.69431 35.9667 8.23507L32.7407 5.75802C31.7133 4.96868 30.2839 4.96868 29.2594 5.75802L26.0333 8.23507C25.4305 8.69431 24.6699 8.89811 23.918 8.80054L19.8826 8.26953C18.5996 8.10017 17.3626 8.81488 16.8661 10.0118L15.3162 13.7661C15.0234 14.4665 14.4666 15.0233 13.7663 15.3161L10.0122 16.866C8.81533 17.3626 8.10067 18.5997 8.27001 19.8827L8.80099 23.9184C8.89856 24.6704 8.69479 25.431 8.23558 26.0308L5.75865 29.2572C4.96937 30.2845 4.96937 31.7142 5.75865 32.7387L8.23558 35.965C8.69766 36.5677 8.90143 37.3283 8.80099 38.0803L8.27001 42.116C8.10067 43.3991 8.81533 44.636 10.0122 45.1328L13.7663 46.6856C14.4695 46.9755 15.0263 47.5322 15.3162 48.2354L16.8689 51.9897C17.3626 53.1868 18.6025 53.9014 19.8854 53.7322L23.7716 53.2183Z" stroke="url(#paint0_linear_307_798)" stroke-width="4" stroke-linecap="round" stroke-linejoin="round"/>
<defs>
<linearGradient id="paint0_linear_307_798" x1="5.16669" y1="5.16602" x2="64.476" y2="45.631" gradientUnits="userSpaceOnUse">
<stop stop-color="#00C7BE"/>
<stop offset="1" stop-color="#0E3C5A"/>
</linearGradient>
</defs>
</svg>
